# Blender 4.5.1 LTS
# www.blender.org
mtllib 1x1.mtl
o 1x1
v -2.399040 8.001282 2.399040
v -2.399040 8.001282 -2.399041
v -0.002240 8.001282 0.002240
v 2.399041 8.001282 -2.399041
v 2.399041 8.001282 2.399040
v -0.002240 4.000641 -2.399041
v 2.399041 4.000641 -2.399041
v 2.399041 0.000000 -2.399041
v -2.399040 4.000641 -2.399041
v -2.399040 0.000000 -2.399041
v -2.399040 4.000641 0.002240
v -2.399040 4.000641 2.399040
v -2.399040 0.000000 2.399040
v 2.399041 4.000641 2.399040
v -0.002240 4.000641 2.399040
v 2.399041 0.000000 2.399040
v 2.399041 4.000641 0.002240
v 3.998401 0.000000 0.002240
v 3.998401 0.000000 3.998400
v 3.200961 0.000000 0.799680
v -3.998401 0.000000 3.998400
v -3.998401 0.000000 0.002240
v -3.200960 0.000000 -0.799680
v -3.998401 0.000000 -3.998400
v -0.002240 0.000000 3.998400
v -0.799680 0.000000 3.200960
v 3.998401 0.000000 -3.998400
v 0.799681 0.000000 -3.200960
v -0.002240 0.000000 -3.998400
v 3.998401 9.600641 0.002240
v 3.998401 4.802561 0.002240
v 3.998401 7.203841 -2.000321
v 3.998401 9.600641 3.998400
v 3.998401 7.203841 2.000320
v 3.998401 2.401281 2.000320
v 3.998401 4.802561 -3.998400
v 3.998401 9.600641 -3.998400
v 3.998401 2.401281 -2.000321
v 3.998401 4.802561 3.998400
v 2.000321 2.401281 3.998400
v -2.000320 2.401281 3.998400
v -0.002240 9.600641 3.998400
v -0.002240 4.802561 3.998400
v 2.000321 7.203841 3.998400
v -3.998401 9.600641 3.998400
v -3.998401 4.802561 3.998400
v -2.000320 7.203841 3.998400
v -3.998401 7.203841 2.000320
v -3.998401 4.802561 0.002240
v -3.998401 9.600641 0.002240
v -3.998401 2.401281 2.000320
v -3.998401 2.401281 -2.000321
v -3.998401 4.802561 -3.998400
v -3.998401 7.203841 -2.000321
v -3.998401 9.600641 -3.998400
v -0.002240 4.802561 -3.998400
v -2.000320 7.203841 -3.998400
v -2.000320 2.401281 -3.998400
v -0.002240 9.600641 -3.998400
v 2.000321 2.401281 -3.998400
v 2.000321 7.203841 -3.998400
v -2.000320 9.600641 2.000320
v -2.000320 9.600641 -2.000321
v 2.399041 9.600641 0.002240
v 2.394560 9.600641 -0.154560
v 2.000321 9.600641 2.000320
v 2.000321 9.600641 -2.000321
v 1.332801 9.600641 -1.995840
v 1.458240 9.600641 -1.901760
v 1.583680 9.600641 -1.803200
v 1.695680 9.600641 -1.695680
v 1.803201 9.600641 1.583680
v 1.695680 9.600641 1.695680
v 1.901760 9.600641 1.462720
v 1.995840 9.600641 1.332800
v 2.076481 9.600641 1.202880
v 2.152640 9.600641 1.064000
v 2.215361 9.600641 0.920640
v 2.273601 9.600641 0.772800
v 2.318401 9.600641 0.620480
v 2.354241 9.600641 0.468160
v 2.394560 9.600641 0.159040
v 2.381120 9.600641 0.315840
v -2.399040 9.600641 0.002240
v -2.394560 9.600641 0.159040
v -1.332800 9.600641 1.995840
v -1.202880 9.600641 2.080960
v 1.059520 9.600641 -2.152640
v 1.198400 9.600641 -2.076481
v 0.916160 9.600641 -2.215361
v 0.772800 9.600641 -2.273600
v 0.620480 9.600641 -2.318400
v 0.468160 9.600641 -2.354241
v -0.002240 9.600641 -2.399041
v 0.154560 9.600641 -2.394560
v 0.311360 9.600641 -2.381120
v -1.202880 9.600641 -2.076481
v -1.332800 9.600641 -1.995840
v -1.462720 9.600641 -1.901760
v -1.583680 9.600641 -1.803200
v -1.695680 9.600641 -1.695680
v -0.002240 9.600641 2.399040
v -0.159040 9.600641 2.394560
v -0.315840 9.600641 2.381120
v -0.468160 9.600641 2.354240
v -0.620480 9.600641 2.318400
v -0.772800 9.600641 2.273600
v -0.920640 9.600641 2.219840
v -1.064000 9.600641 2.152640
v 2.381120 9.600641 -0.311360
v 2.354241 9.600641 -0.468160
v 2.318401 9.600641 -0.620480
v 2.273601 9.600641 -0.772800
v 2.215361 9.600641 -0.916160
v 2.152640 9.600641 -1.059520
v 2.076481 9.600641 -1.198400
v 1.995840 9.600641 -1.332801
v 1.901760 9.600641 -1.458240
v 1.803201 9.600641 -1.583680
v 0.154560 9.600641 2.394560
v 0.311360 9.600641 2.381120
v 0.468160 9.600641 2.354240
v 0.620480 9.600641 2.318400
v 0.772800 9.600641 2.273600
v 0.916160 9.600641 2.219840
v 1.059520 9.600641 2.152640
v 1.198400 9.600641 2.080960
v -2.394560 9.600641 -0.154560
v -2.381120 9.600641 -0.311360
v -2.354240 9.600641 -0.468160
v -2.318400 9.600641 -0.620480
v -2.273600 9.600641 -0.772800
v -2.219841 9.600641 -0.916160
v -2.152640 9.600641 -1.059520
v -2.080960 9.600641 -1.198400
v -1.995840 9.600641 -1.332801
v -1.906240 9.600641 -1.458240
v -1.803200 9.600641 -1.583680
v -1.695680 9.600641 1.695680
v -1.803200 9.600641 1.583680
v -1.906240 9.600641 1.462720
v -1.995840 9.600641 1.332800
v -2.080960 9.600641 1.202880
v -2.152640 9.600641 1.064000
v -2.219841 9.600641 0.920640
v -2.273600 9.600641 0.772800
v -2.318400 9.600641 0.620480
v -2.354240 9.600641 0.468160
v -2.381120 9.600641 0.315840
v 1.458240 9.600641 1.906240
v 1.332801 9.600641 1.995840
v 1.583680 9.600641 1.803200
v -1.064000 9.600641 -2.152640
v -0.920640 9.600641 -2.215361
v -0.772800 9.600641 -2.273600
v -0.620480 9.600641 -2.318400
v -0.468160 9.600641 -2.354241
v -0.159040 9.600641 -2.394560
v -0.315840 9.600641 -2.381120
v -1.462720 9.600641 1.906240
v -1.583680 9.600641 1.803200
v 2.399041 11.200003 0.002240
v 2.394560 11.200003 -0.154560
v 2.381120 11.200003 -0.311360
v 2.354241 11.200003 -0.468160
v 2.318401 11.200003 -0.620480
v 2.273601 11.200003 -0.772800
v 2.215361 11.200003 -0.916160
v 2.152640 11.200003 -1.059520
v 2.076481 11.200003 -1.198400
v 1.995840 11.200003 -1.332801
v 1.901760 11.200003 -1.458240
v 1.803201 11.200003 -1.583680
v 1.695680 11.200003 -1.695680
v 1.583680 11.200003 -1.803200
v 1.458240 11.200003 -1.901760
v 1.332801 11.200003 -1.995840
v 1.198400 11.200003 -2.076481
v 1.059520 11.200003 -2.152640
v 0.916160 11.200003 -2.215361
v 0.772800 11.200003 -2.273600
v 0.620480 11.200003 -2.318400
v 0.468160 11.200003 -2.354241
v 0.311360 11.200003 -2.381120
v 0.154560 11.200003 -2.394560
v -0.002240 11.200003 -2.399041
v -0.159040 11.200003 -2.394560
v -0.315840 11.200003 -2.381120
v -0.468160 11.200003 -2.354241
v -0.620480 11.200003 -2.318400
v -0.772800 11.200003 -2.273600
v -0.920640 11.200003 -2.215361
v -1.064000 11.200003 -2.152640
v -1.202880 11.200003 -2.076481
v -1.332800 11.200003 -1.995840
v -1.462720 11.200003 -1.901760
v -1.583680 11.200003 -1.803200
v -1.695680 11.200003 -1.695680
v -1.803200 11.200003 -1.583680
v -1.906240 11.200003 -1.458240
v -1.995840 11.200003 -1.332801
v -2.080960 11.200003 -1.198400
v -2.152640 11.200003 -1.059520
v -2.219841 11.200003 -0.916160
v -2.273600 11.200003 -0.772800
v -2.318400 11.200003 -0.620480
v -2.354240 11.200003 -0.468160
v -2.381120 11.200003 -0.311360
v -2.394560 11.200003 -0.154560
v -2.399040 11.200003 0.002240
v -2.394560 11.200003 0.159040
v -2.381120 11.200003 0.315840
v -2.354240 11.200003 0.468160
v -2.318400 11.200003 0.620480
v -2.273600 11.200003 0.772800
v -2.219841 11.200003 0.920640
v -2.152640 11.200003 1.064000
v -2.080960 11.200003 1.202880
v -1.995840 11.200003 1.332800
v -1.906240 11.200003 1.462720
v -1.803200 11.200003 1.583680
v -1.695680 11.200003 1.695680
v -1.583680 11.200003 1.803200
v -1.462720 11.200003 1.906240
v -1.332800 11.200003 1.995840
v -1.202880 11.200003 2.080960
v -1.064000 11.200003 2.152640
v -0.920640 11.200003 2.219840
v -0.772800 11.200003 2.273600
v -0.620480 11.200003 2.318400
v -0.468160 11.200003 2.354240
v -0.315840 11.200003 2.381120
v -0.159040 11.200003 2.394560
v -0.002240 11.200003 2.399040
v 0.154560 11.200003 2.394560
v 0.311360 11.200003 2.381120
v 0.468160 11.200003 2.354240
v 0.620480 11.200003 2.318400
v 0.772800 11.200003 2.273600
v 0.916160 11.200003 2.219840
v 1.059520 11.200003 2.152640
v 1.198400 11.200003 2.080960
v 1.332801 11.200003 1.995840
v 1.458240 11.200003 1.906240
v 1.583680 11.200003 1.803200
v 1.695680 11.200003 1.695680
v 1.803201 11.200003 1.583680
v 1.901760 11.200003 1.462720
v 1.995840 11.200003 1.332800
v 2.076481 11.200003 1.202880
v 2.152640 11.200003 1.064000
v 2.215361 11.200003 0.920640
v 2.273601 11.200003 0.772800
v 2.318401 11.200003 0.620480
v 2.354241 11.200003 0.468160
v 2.381120 11.200003 0.315840
v 2.394560 11.200003 0.159040
v -0.002240 11.200003 0.002240
vn -0.0000 -1.0000 -0.0000
vn -0.0000 -0.0000 1.0000
vn 1.0000 -0.0000 -0.0000
vn -0.0000 -0.0000 -1.0000
vn -1.0000 -0.0000 -0.0000
vn -0.0000 1.0000 -0.0000
vn -0.0001 1.0000 -0.0000
vn -0.0005 1.0000 -0.0000
vn 0.0005 1.0000 -0.0000
vn 0.0003 1.0000 -0.0000
vn 0.9996 -0.0000 -0.0286
vn 0.9963 -0.0000 -0.0854
vn 0.9856 -0.0000 -0.1690
vn 0.9734 -0.0000 -0.2290
vn 0.9594 -0.0000 -0.2822
vn 0.9265 -0.0000 -0.3764
vn 0.9162 -0.0000 -0.4008
vn 0.8768 -0.0000 -0.4808
vn 0.8575 -0.0000 -0.5145
vn 0.8000 -0.0000 -0.6000
vn 0.7863 -0.0000 -0.6178
vn 0.7214 -0.0000 -0.6925
vn 0.6925 -0.0000 -0.7214
vn 0.6178 -0.0000 -0.7863
vn 0.6000 -0.0000 -0.8000
vn 0.5145 -0.0000 -0.8575
vn 0.4808 -0.0000 -0.8768
vn 0.4008 -0.0000 -0.9162
vn 0.3764 -0.0000 -0.9265
vn 0.2822 -0.0000 -0.9594
vn 0.2290 -0.0000 -0.9734
vn 0.1690 -0.0000 -0.9856
vn 0.0854 -0.0000 -0.9963
vn 0.0286 -0.0000 -0.9996
vn -0.0286 -0.0000 -0.9996
vn -0.0854 -0.0000 -0.9963
vn -0.1738 -0.0000 -0.9848
vn -0.2290 -0.0000 -0.9734
vn -0.2822 -0.0000 -0.9594
vn -0.3665 -0.0000 -0.9304
vn -0.4008 -0.0000 -0.9162
vn -0.4808 -0.0000 -0.8768
vn -0.5274 -0.0000 -0.8496
vn -0.5865 -0.0000 -0.8099
vn -0.6317 -0.0000 -0.7752
vn -0.6925 -0.0000 -0.7214
vn -0.7214 -0.0000 -0.6925
vn -0.7727 -0.0000 -0.6347
vn -0.8137 -0.0000 -0.5812
vn -0.8448 -0.0000 -0.5351
vn -0.8448 -0.0000 -0.5350
vn -0.8886 -0.0000 -0.4586
vn -0.9055 -0.0000 -0.4244
vn -0.9363 -0.0000 -0.3511
vn -0.9594 -0.0000 -0.2822
vn -0.9734 -0.0000 -0.2290
vn -0.9856 -0.0000 -0.1690
vn -0.9963 -0.0000 -0.0854
vn -0.9996 -0.0000 -0.0286
vn -0.9996 -0.0000 0.0286
vn -0.9963 -0.0000 0.0854
vn -0.9848 -0.0000 0.1738
vn -0.9734 -0.0000 0.2290
vn -0.9594 -0.0000 0.2822
vn -0.9398 -0.0000 0.3417
vn -0.9055 -0.0000 0.4244
vn -0.8886 -0.0000 0.4586
vn -0.8365 -0.0000 0.5480
vn -0.8232 -0.0000 0.5677
vn -0.7612 -0.0000 0.6485
vn -0.7214 -0.0000 0.6925
vn -0.6925 -0.0000 0.7214
vn -0.6485 -0.0000 0.7612
vn -0.5677 -0.0000 0.8232
vn -0.5480 -0.0000 0.8365
vn -0.4586 -0.0000 0.8886
vn -0.4244 -0.0000 0.9055
vn -0.3417 -0.0000 0.9398
vn -0.2822 -0.0000 0.9594
vn -0.2290 -0.0000 0.9734
vn -0.1738 -0.0000 0.9848
vn -0.0854 -0.0000 0.9963
vn -0.0286 -0.0000 0.9996
vn 0.0286 -0.0000 0.9996
vn 0.0854 -0.0000 0.9963
vn 0.1690 -0.0000 0.9856
vn 0.2290 -0.0000 0.9734
vn 0.2822 -0.0000 0.9594
vn 0.3511 -0.0000 0.9363
vn 0.4244 -0.0000 0.9055
vn 0.4586 -0.0000 0.8886
vn 0.5351 -0.0000 0.8448
vn 0.5812 -0.0000 0.8137
vn 0.6347 -0.0000 0.7727
vn 0.6925 -0.0000 0.7214
vn 0.7214 -0.0000 0.6925
vn 0.7752 -0.0000 0.6317
vn 0.8099 -0.0000 0.5865
vn 0.8496 -0.0000 0.5274
vn 0.8768 -0.0000 0.4808
vn 0.9162 -0.0000 0.4008
vn 0.9304 -0.0000 0.3665
vn 0.9594 -0.0000 0.2822
vn 0.9734 -0.0000 0.2290
vn 0.9848 -0.0000 0.1738
vn 0.9963 -0.0000 0.0854
vn 0.9996 -0.0000 0.0286
s 0
f 1//1 2//1 3//1
f 4//1 5//1 3//1
f 4//1 3//1 2//1
f 1//1 3//1 5//1
f 2//2 6//2 4//2
f 7//2 4//2 6//2
f 8//2 7//2 6//2
f 2//2 9//2 6//2
f 8//2 6//2 10//2
f 9//2 10//2 6//2
f 11//3 1//3 12//3
f 11//3 10//3 9//3
f 12//3 13//3 11//3
f 10//3 11//3 13//3
f 1//3 11//3 2//3
f 9//3 2//3 11//3
f 14//4 15//4 5//4
f 16//4 13//4 15//4
f 1//4 15//4 12//4
f 1//4 5//4 15//4
f 12//4 15//4 13//4
f 16//4 15//4 14//4
f 7//5 17//5 4//5
f 14//5 17//5 16//5
f 17//5 7//5 8//5
f 5//5 4//5 17//5
f 8//5 16//5 17//5
f 17//5 14//5 5//5
f 18//1 19//1 20//1
f 16//1 8//1 20//1
f 20//1 8//1 18//1
f 21//1 22//1 13//1
f 23//1 13//1 22//1
f 22//1 24//1 23//1
f 25//1 16//1 19//1
f 21//1 26//1 25//1
f 21//1 13//1 26//1
f 20//1 19//1 16//1
f 16//1 26//1 13//1
f 23//1 24//1 10//1
f 10//1 13//1 23//1
f 27//1 18//1 8//1
f 10//1 28//1 8//1
f 16//1 25//1 26//1
f 29//1 10//1 24//1
f 27//1 28//1 29//1
f 27//1 8//1 28//1
f 10//1 29//1 28//1
f 30//3 31//3 32//3
f 33//3 34//3 30//3
f 18//3 31//3 35//3
f 36//3 37//3 32//3
f 36//3 32//3 31//3
f 31//3 38//3 36//3
f 18//3 35//3 19//3
f 39//3 19//3 35//3
f 33//3 39//3 34//3
f 31//3 30//3 34//3
f 30//3 32//3 37//3
f 39//3 35//3 31//3
f 31//3 34//3 39//3
f 31//3 18//3 38//3
f 27//3 38//3 18//3
f 27//3 36//3 38//3
f 19//2 40//2 25//2
f 25//2 41//2 21//2
f 42//2 43//2 44//2
f 39//2 33//2 44//2
f 45//2 46//2 47//2
f 25//2 43//2 41//2
f 46//2 41//2 43//2
f 46//2 21//2 41//2
f 45//2 47//2 42//2
f 43//2 42//2 47//2
f 43//2 40//2 39//2
f 43//2 47//2 46//2
f 43//2 25//2 40//2
f 19//2 39//2 40//2
f 39//2 44//2 43//2
f 42//2 44//2 33//2
f 45//5 48//5 46//5
f 49//5 48//5 50//5
f 49//5 46//5 48//5
f 46//5 49//5 51//5
f 24//5 22//5 52//5
f 49//5 52//5 22//5
f 24//5 52//5 53//5
f 50//5 54//5 49//5
f 49//5 53//5 52//5
f 50//5 55//5 54//5
f 46//5 51//5 21//5
f 22//5 51//5 49//5
f 53//5 49//5 54//5
f 22//5 21//5 51//5
f 45//5 50//5 48//5
f 53//5 54//5 55//5
f 56//4 53//4 57//4
f 53//4 58//4 24//4
f 53//4 56//4 58//4
f 56//4 57//4 59//4
f 55//4 57//4 53//4
f 27//4 29//4 60//4
f 56//4 60//4 29//4
f 59//4 61//4 56//4
f 59//4 37//4 61//4
f 27//4 60//4 36//4
f 29//4 58//4 56//4
f 36//4 61//4 37//4
f 56//4 36//4 60//4
f 36//4 56//4 61//4
f 55//4 59//4 57//4
f 29//4 24//4 58//4
f 45//6 42//6 62//6
f 59//6 55//6 63//6
f 64//6 30//6 65//6
f 42//6 33//6 66//6
f 45//6 62//6 50//6
f 50//6 63//6 55//6
f 37//6 59//6 67//6
f 67//6 68//6 69//6
f 67//6 69//6 70//6
f 67//6 70//6 71//6
f 37//6 67//6 30//6
f 30//6 66//6 33//6
f 72//6 73//6 66//6
f 74//6 72//6 66//6
f 75//6 74//6 66//6
f 76//6 75//6 66//6
f 77//6 76//6 66//6
f 78//6 77//6 66//6
f 79//7 78//7 66//7
f 80//6 79//6 66//6
f 81//6 80//6 66//6
f 30//6 64//6 82//6
f 30//6 82//6 83//6
f 30//6 83//6 81//6
f 30//6 81//6 66//6
f 84//6 50//6 85//6
f 86//6 62//6 87//6
f 88//6 89//6 67//6
f 90//6 88//6 67//6
f 91//6 90//6 67//6
f 92//6 91//6 67//6
f 93//8 92//8 67//8
f 59//6 94//6 95//6
f 59//6 95//6 96//6
f 59//6 96//6 93//6
f 59//6 93//6 67//6
f 97//6 63//6 98//6
f 99//6 98//6 63//6
f 100//6 99//6 63//6
f 101//6 100//6 63//6
f 42//6 102//6 103//6
f 42//6 103//6 104//6
f 42//6 104//6 105//6
f 42//6 105//6 106//6
f 42//6 106//6 107//6
f 42//6 107//6 108//6
f 42//6 108//6 109//6
f 42//6 109//6 87//6
f 42//6 87//6 62//6
f 110//6 65//6 30//6
f 111//6 110//6 30//6
f 112//6 111//6 30//6
f 113//6 112//6 30//6
f 114//6 113//6 30//6
f 115//6 114//6 30//6
f 116//6 115//6 30//6
f 117//6 116//6 30//6
f 118//6 117//6 30//6
f 119//6 118//6 30//6
f 71//6 119//6 30//6
f 67//6 71//6 30//6
f 120//6 102//6 42//6
f 121//6 120//6 42//6
f 122//6 121//6 42//6
f 123//6 122//6 42//6
f 124//6 123//6 42//6
f 125//6 124//6 42//6
f 126//6 125//6 42//6
f 127//6 126//6 42//6
f 66//6 127//6 42//6
f 50//6 84//6 128//6
f 50//6 128//6 129//6
f 50//6 129//6 130//6
f 50//6 130//6 131//6
f 50//6 131//6 132//6
f 50//6 132//6 133//6
f 50//6 133//6 134//6
f 50//6 134//6 135//6
f 50//6 135//6 136//6
f 50//6 136//6 137//6
f 50//6 137//6 138//6
f 50//6 138//6 101//6
f 50//6 101//6 63//6
f 62//6 139//6 140//6
f 62//6 140//6 141//6
f 62//6 141//6 142//6
f 62//6 142//6 143//6
f 62//6 143//6 144//6
f 62//6 144//6 145//6
f 62//6 145//6 146//6
f 62//7 146//7 147//7
f 62//9 147//9 148//9
f 149//6 85//6 50//6
f 148//6 149//6 50//6
f 62//6 148//6 50//6
f 150//6 151//6 66//6
f 152//6 150//6 66//6
f 73//6 152//6 66//6
f 68//6 67//6 89//6
f 63//6 97//6 153//6
f 63//6 153//6 154//6
f 63//6 154//6 155//6
f 63//6 155//6 156//6
f 63//10 156//10 157//10
f 158//6 94//6 59//6
f 159//6 158//6 59//6
f 157//6 159//6 59//6
f 63//6 157//6 59//6
f 127//6 66//6 151//6
f 62//6 86//6 160//6
f 62//6 160//6 161//6
f 62//6 161//6 139//6
f 65//11 162//11 64//11
f 162//11 65//11 163//11
f 110//12 163//12 65//12
f 163//12 110//12 164//12
f 111//13 164//13 110//13
f 164//13 111//13 165//13
f 112//14 165//14 111//14
f 165//14 112//14 166//14
f 113//15 166//15 112//15
f 166//15 113//15 167//15
f 114//16 167//16 113//16
f 167//16 114//16 168//16
f 115//17 168//17 114//17
f 168//17 115//17 169//17
f 116//18 169//18 115//18
f 169//18 116//18 170//18
f 117//19 170//19 116//19
f 170//19 117//19 171//19
f 118//20 171//20 117//20
f 171//20 118//20 172//20
f 119//21 172//21 118//21
f 172//21 119//21 173//21
f 71//22 173//22 119//22
f 173//22 71//22 174//22
f 175//23 174//23 70//23
f 71//23 70//23 174//23
f 176//24 175//24 69//24
f 70//24 69//24 175//24
f 177//25 176//25 68//25
f 69//25 68//25 176//25
f 178//26 177//26 89//26
f 68//26 89//26 177//26
f 179//27 178//27 88//27
f 89//27 88//27 178//27
f 180//28 179//28 90//28
f 88//28 90//28 179//28
f 181//29 180//29 91//29
f 90//29 91//29 180//29
f 182//30 181//30 92//30
f 91//30 92//30 181//30
f 183//31 182//31 93//31
f 92//31 93//31 182//31
f 184//32 183//32 96//32
f 93//32 96//32 183//32
f 185//33 184//33 95//33
f 96//33 95//33 184//33
f 186//34 185//34 94//34
f 95//34 94//34 185//34
f 187//35 186//35 158//35
f 94//35 158//35 186//35
f 188//36 187//36 159//36
f 158//36 159//36 187//36
f 189//37 188//37 157//37
f 159//37 157//37 188//37
f 190//38 189//38 156//38
f 157//38 156//38 189//38
f 191//39 190//39 155//39
f 156//39 155//39 190//39
f 192//40 191//40 154//40
f 155//40 154//40 191//40
f 193//41 192//41 153//41
f 154//41 153//41 192//41
f 194//42 193//42 97//42
f 153//42 97//42 193//42
f 195//43 194//43 98//43
f 97//43 98//43 194//43
f 196//44 195//44 99//44
f 98//44 99//44 195//44
f 197//45 196//45 100//45
f 99//45 100//45 196//45
f 198//46 197//46 101//46
f 100//46 101//46 197//46
f 199//47 198//47 138//47
f 101//47 138//47 198//47
f 200//48 199//48 137//48
f 138//48 137//48 199//48
f 201//49 200//49 136//49
f 137//49 136//49 200//49
f 202//50 201//50 135//50
f 136//51 135//51 201//51
f 203//52 202//52 134//52
f 135//52 134//52 202//52
f 204//53 203//53 133//53
f 134//53 133//53 203//53
f 205//54 204//54 132//54
f 133//54 132//54 204//54
f 206//55 205//55 131//55
f 132//55 131//55 205//55
f 207//56 206//56 130//56
f 131//56 130//56 206//56
f 208//57 207//57 129//57
f 130//57 129//57 207//57
f 209//58 208//58 128//58
f 129//58 128//58 208//58
f 210//59 209//59 84//59
f 128//59 84//59 209//59
f 211//60 210//60 85//60
f 84//60 85//60 210//60
f 212//61 211//61 149//61
f 85//61 149//61 211//61
f 213//62 212//62 148//62
f 149//62 148//62 212//62
f 214//63 213//63 147//63
f 148//63 147//63 213//63
f 215//64 214//64 146//64
f 147//64 146//64 214//64
f 216//65 215//65 145//65
f 146//65 145//65 215//65
f 217//66 216//66 144//66
f 145//66 144//66 216//66
f 218//67 217//67 143//67
f 144//67 143//67 217//67
f 219//68 218//68 142//68
f 143//68 142//68 218//68
f 220//69 219//69 141//69
f 142//69 141//69 219//69
f 221//70 220//70 140//70
f 141//70 140//70 220//70
f 222//71 221//71 139//71
f 140//71 139//71 221//71
f 161//72 223//72 222//72
f 222//72 139//72 161//72
f 160//73 224//73 223//73
f 223//73 161//73 160//73
f 86//74 225//74 224//74
f 224//74 160//74 86//74
f 87//75 226//75 225//75
f 225//75 86//75 87//75
f 109//76 227//76 226//76
f 226//76 87//76 109//76
f 108//77 228//77 227//77
f 227//77 109//77 108//77
f 107//78 229//78 228//78
f 228//78 108//78 107//78
f 106//79 230//79 229//79
f 229//79 107//79 106//79
f 105//80 231//80 230//80
f 230//80 106//80 105//80
f 104//81 232//81 231//81
f 231//81 105//81 104//81
f 103//82 233//82 232//82
f 232//82 104//82 103//82
f 102//83 234//83 233//83
f 233//83 103//83 102//83
f 120//84 235//84 234//84
f 234//84 102//84 120//84
f 121//85 236//85 235//85
f 235//85 120//85 121//85
f 122//86 237//86 236//86
f 236//86 121//86 122//86
f 123//87 238//87 237//87
f 237//87 122//87 123//87
f 124//88 239//88 238//88
f 238//88 123//88 124//88
f 125//89 240//89 239//89
f 239//89 124//89 125//89
f 126//90 241//90 240//90
f 240//90 125//90 126//90
f 127//91 242//91 241//91
f 241//91 126//91 127//91
f 151//92 243//92 242//92
f 242//92 127//92 151//92
f 150//93 244//93 243//93
f 243//93 151//93 150//93
f 152//94 245//94 244//94
f 244//94 150//94 152//94
f 73//95 246//95 245//95
f 245//95 152//95 73//95
f 72//96 246//96 73//96
f 246//96 72//96 247//96
f 74//97 247//97 72//97
f 247//97 74//97 248//97
f 75//98 248//98 74//98
f 248//98 75//98 249//98
f 76//99 249//99 75//99
f 249//99 76//99 250//99
f 77//100 250//100 76//100
f 250//100 77//100 251//100
f 78//101 251//101 77//101
f 251//101 78//101 252//101
f 79//102 252//102 78//102
f 252//102 79//102 253//102
f 80//103 253//103 79//103
f 253//103 80//103 254//103
f 81//104 254//104 80//104
f 254//104 81//104 255//104
f 83//105 255//105 81//105
f 255//105 83//105 256//105
f 82//106 256//106 83//106
f 256//106 82//106 257//106
f 64//107 257//107 82//107
f 257//107 64//107 162//107
f 256//6 257//6 258//6
f 162//6 258//6 257//6
f 210//6 258//6 209//6
f 255//6 256//6 258//6
f 254//6 255//6 258//6
f 253//6 254//6 258//6
f 252//6 253//6 258//6
f 251//6 252//6 258//6
f 250//6 251//6 258//6
f 249//6 250//6 258//6
f 248//6 249//6 258//6
f 247//6 248//6 258//6
f 246//6 247//6 258//6
f 245//6 246//6 258//6
f 244//6 245//6 258//6
f 243//6 244//6 258//6
f 242//6 243//6 258//6
f 241//6 242//6 258//6
f 240//6 241//6 258//6
f 239//6 240//6 258//6
f 238//6 239//6 258//6
f 237//6 238//6 258//6
f 236//6 237//6 258//6
f 235//6 236//6 258//6
f 234//6 235//6 258//6
f 258//6 233//6 234//6
f 258//6 232//6 233//6
f 258//6 231//6 232//6
f 258//6 230//6 231//6
f 258//6 229//6 230//6
f 258//6 228//6 229//6
f 258//6 227//6 228//6
f 258//6 226//6 227//6
f 258//6 225//6 226//6
f 258//6 224//6 225//6
f 258//6 223//6 224//6
f 258//6 222//6 223//6
f 258//6 221//6 222//6
f 258//6 220//6 221//6
f 258//6 219//6 220//6
f 258//6 218//6 219//6
f 258//6 217//6 218//6
f 258//6 216//6 217//6
f 258//6 215//6 216//6
f 258//6 214//6 215//6
f 258//6 213//6 214//6
f 258//6 212//6 213//6
f 258//6 211//6 212//6
f 258//6 210//6 211//6
f 208//6 209//6 258//6
f 207//6 208//6 258//6
f 206//6 207//6 258//6
f 205//6 206//6 258//6
f 204//6 205//6 258//6
f 203//6 204//6 258//6
f 202//6 203//6 258//6
f 201//6 202//6 258//6
f 200//6 201//6 258//6
f 199//6 200//6 258//6
f 198//6 199//6 258//6
f 197//6 198//6 258//6
f 196//6 197//6 258//6
f 195//6 196//6 258//6
f 194//6 195//6 258//6
f 193//6 194//6 258//6
f 192//6 193//6 258//6
f 191//6 192//6 258//6
f 190//6 191//6 258//6
f 189//6 190//6 258//6
f 188//6 189//6 258//6
f 187//6 188//6 258//6
f 186//6 187//6 258//6
f 258//6 185//6 186//6
f 258//6 184//6 185//6
f 258//6 183//6 184//6
f 258//6 182//6 183//6
f 258//6 181//6 182//6
f 258//6 180//6 181//6
f 258//6 179//6 180//6
f 258//6 178//6 179//6
f 258//6 177//6 178//6
f 258//6 176//6 177//6
f 258//6 175//6 176//6
f 258//6 174//6 175//6
f 258//6 173//6 174//6
f 258//6 172//6 173//6
f 258//6 171//6 172//6
f 258//6 170//6 171//6
f 258//6 169//6 170//6
f 258//6 168//6 169//6
f 258//6 167//6 168//6
f 258//6 166//6 167//6
f 258//6 165//6 166//6
f 258//6 164//6 165//6
f 258//6 162//6 163//6
f 258//6 163//6 164//6
